<svg width="147" height="148" viewBox="0 0 147 148" xmlns="http://www.w3.org/2000/svg">
  <path d="M73.5.6C33 .6.1 33.5.1 74c0 40.5 32.9 73.4 73.4 73.4 40.5 0 73.4-32.9 73.4-73.4C146.9 33.5 114 .6 73.5.6zm59.5 71v5h8.8c0 1-.1 2-.2 3.1l-4.7-.5-.3 3 4.7.5c-.2 1.4-.4 2.8-.6 4.1l-4.6-1-.6 2.9 4.6 1c-.3 1.4-.7 2.7-1.1 4l-4.4-1.4-.9 2.9 4.4 1.4c-.5 1.3-.9 2.6-1.5 3.9l-4.3-1.9-1.2 2.7 4.3 1.9c-.5 1-1 2-1.5 2.9l-7.9-4.5-2.5 4.3 7.9 4.5c-.5.9-1.1 1.7-1.7 2.5l-3.7-2.7-1.8 2.4 3.7 2.7c-.8 1.1-1.7 2.2-2.6 3.2l-3.4-3-2 2.2 3.4 3c-.9 1-1.9 2-2.9 2.9l-3-3.4-2.2 2 3 3.4c-1 .9-2.1 1.8-3.2 2.6l-2.7-3.7-2.4 1.8 2.7 3.7-2.7 1.8-4.5-7.8-4.3 2.5 4.5 7.8c-.9.5-1.8.9-2.8 1.4l-1.8-4.1-2.7 1.2 1.8 4.1-3.9 1.5-1.4-4.2-2.9.9 1.4 4.2c-1.3.4-2.7.8-4 1.1l-.9-4.3-2.9.6.9 4.3c-1.4.3-2.7.5-4.1.6l-.5-4.5-3 .3.5 4.5c-1 .1-2.1.2-3.2.2v-8.6h-5v8.6c-1.1 0-2.1-.1-3.2-.2l.4-4.2-3-.3-.4 4.2c-1.4-.2-2.8-.4-4.2-.7l.8-4.2-2.9-.6-.8 4.2c-1.3-.3-2.7-.7-4-1.1l1.4-4.2-2.9-.9-1.4 4.2c-1.3-.5-2.6-.9-3.9-1.5l1.8-4.1-2.7-1.2-1.8 4.1c-.9-.4-1.8-.9-2.8-1.4l4.4-7.6-4.3-2.5-4.4 7.6-2.7-1.8 2.4-3.4-2.4-1.8-2.4 3.4c-1.1-.8-2.2-1.7-3.2-2.6l2.8-3.1-2.2-2-2.8 3.1c-1-.9-2-1.9-2.9-2.9l3.1-2.8-2-2.2-3.1 2.8c-.9-1-1.8-2.1-2.6-3.2l3.3-2.4-1.8-2.4-3.3 2.4c-.6-.8-1.1-1.7-1.7-2.5l7.5-4.3-2.5-4.3-7.5 4.4c-.5-1-1-1.9-1.5-2.9l3.8-1.7-1.2-2.7-3.8 1.7L9 96.6l3.7-1.2-.9-2.9-3.7 1.2c-.4-1.3-.7-2.7-1.1-4l4-.9-.6-2.9-4 .9c-.3-1.4-.5-2.7-.6-4.1l4.1-.4-.3-3-4.1.4c-.1-1-.1-2-.2-3h8.8v-5H5.3c0-1.1.1-2.2.2-3.3l4.1.4.3-3-4.1-.4c.2-1.4.4-2.8.6-4.1l4 .9.6-2.9-4-.9c.3-1.4.7-2.7 1.1-4l4 1.3.9-2.9-4-1.4c.5-1.3.9-2.6 1.5-3.9l3.8 1.7 1.2-2.7-3.8-1.7c.4-.9.9-1.8 1.4-2.7l7.6 4.4 2.5-4.3-7.6-4.4 1.8-2.7 3.4 2.5 1.8-2.4-3.4-2.5c.8-1.1 1.7-2.2 2.6-3.2l3.1 2.8 2-2.2-3.1-2.8c.9-1 1.9-2 2.9-2.9l2.8 3.2 2.2-2-2.8-3.2c1-.9 2.1-1.8 3.2-2.6l2.5 3.5 2.4-1.8-2.5-3.5c.8-.6 1.7-1.1 2.6-1.7l4.4 7.7 4.3-2.5-4.4-7.7c.9-.5 1.9-1 2.9-1.5l1.8 4 2.7-1.2-1.8-4 3.9-1.5 1.4 4.2 2.9-.9-1.4-4.2c1.3-.4 2.7-.7 4-1.1l.9 4.3 2.9-.6-.9-4.3c1.4-.3 2.7-.5 4.1-.6l.5 4.4 3-.3-.5-4.4c1-.1 2.1-.2 3.1-.2v9.2h5V5.9c1.1 0 2.1.1 3.1.2l-.5 4.5 3 .3.5-4.5c1.4.2 2.7.4 4.1.6l-.9 4.4 2.9.6.9-4.4c1.4.3 2.7.7 4 1.1L91.6 13l2.9.9 1.4-4.3c1.3.5 2.6.9 3.9 1.5l-1.9 4.2 2.7 1.2 1.9-4.2c1 .5 1.9.9 2.9 1.5l-4.4 7.7 4.3 2.5 4.4-7.7c.9.5 1.7 1.1 2.6 1.7l-2.7 3.7 2.4 1.8 2.7-3.7c1.1.8 2.2 1.7 3.2 2.6l-3.1 3.4 2.2 2 3.1-3.4c1 .9 2 1.9 2.9 2.9l-3.4 3.1 2 2.2 3.4-3.1c.9 1 1.8 2.1 2.6 3.2l-3.8 2.7 1.8 2.4 3.8-2.7 1.8 2.7-7.6 4.4 2.5 4.3 7.6-4.4c.5.9.9 1.8 1.4 2.7l-4.3 1.9 1.2 2.7 4.3-1.9 1.5 3.9-4.5 1.5.9 2.9 4.5-1.5c.4 1.3.8 2.7 1.1 4l-4.6 1 .6 2.9 4.6-1c.3 1.4.5 2.7.6 4.1l-4.7.5.3 3 4.7-.5c.1 1.1.2 2.2.2 3.3H133z"/>
</svg>